<svg id="Capa_1" data-name="Capa 1" xmlns="http://www.w3.org/2000/svg" viewBox="0 0 50 50"><defs><style>.cls-1{fill:#333;}</style></defs><title>Corazon-Icono</title><path class="cls-1" d="M25,15.82a.71.71,0,0,0-.71.71.71.71,0,0,0,1.42,0A.71.71,0,0,0,25,15.82Z"/><path class="cls-1" d="M13.28,28.53a.71.71,0,0,0,.71-.71.71.71,0,0,0-1.42,0A.71.71,0,0,0,13.28,28.53Z"/><path class="cls-1" d="M30.65,8.76c-6.36,0-11.58,4.38-12,9.9C12.62,19,6.93,23.33,6.93,29.24A9.87,9.87,0,0,0,9.68,36a4.29,4.29,0,0,1-1.14,4,.71.71,0,0,0-.15.77.7.7,0,0,0,.65.44,7.79,7.79,0,0,0,5.4-2.18,16,16,0,0,0,4.91.77c6.36,0,11.57-4.38,12-9.9a15.82,15.82,0,0,0,4.23-.76A7.79,7.79,0,0,0,41,31.35a.7.7,0,0,0,.5-1.2,4.31,4.31,0,0,1-1.14-4,9.83,9.83,0,0,0,2.75-6.75C43.07,13.22,36.94,8.76,30.65,8.76ZM19.35,38.41a14.26,14.26,0,0,1-4.84-.83.7.7,0,0,0-.78.18,6.38,6.38,0,0,1-3.17,1.88,5.66,5.66,0,0,0,.43-4.2.69.69,0,0,0-.17-.3,8.49,8.49,0,0,1-2.48-5.9c0-5,5-9.18,11-9.18,5.64,0,10.59,3.92,10.59,9.18C29.94,34.3,25.19,38.41,19.35,38.41ZM39.18,25.26a.66.66,0,0,0-.17.29,5.68,5.68,0,0,0,.43,4.21,6.38,6.38,0,0,1-3.17-1.88.7.7,0,0,0-.78-.18,13.84,13.84,0,0,1-4.16.81,10.1,10.1,0,0,0-3.82-7h9.21a.71.71,0,0,0,.71-.71.7.7,0,0,0-.71-.7H25.34a13.08,13.08,0,0,0-5.25-1.39c.4-4.75,5-8.5,10.56-8.5,6,0,11,4.21,11,9.18A8.5,8.5,0,0,1,39.18,25.26Z"/><path class="cls-1" d="M25,27.12H16.1a.7.7,0,0,0-.7.7.7.7,0,0,0,.7.71H25a.71.71,0,0,0,.71-.71A.7.7,0,0,0,25,27.12Z"/><path class="cls-1" d="M25,31.35H13.28a.71.71,0,1,0,0,1.42H25a.71.71,0,0,0,0-1.42Z"/><path class="cls-1" d="M36.72,15.82h-8.9a.7.7,0,0,0-.7.71.7.7,0,0,0,.7.7h8.9a.7.7,0,0,0,.71-.7A.71.71,0,0,0,36.72,15.82Z"/></svg>