<svg id="Capa_1" data-name="Capa 1" xmlns="http://www.w3.org/2000/svg" viewBox="0 0 50 50"><defs><style>.cls-1{fill:#333;}</style></defs><title>Corazon-Icono</title><path class="cls-1" d="M32.73,25.31l9.82-9.82L35.12,8.07l-9.81,9.81L16.42,9A5.25,5.25,0,0,0,9,16.42l8.89,8.89L8.06,35.12l7.43,7.43,9.82-9.81,7.88,7.88,9.29,1.86-1.86-9.29Zm4,9.89-9.89-9.89L15.67,14.19l1.49-1.49,21,21ZM35.12,11l4.46,4.45-2.39,2.39L35,15.65l-1.48,1.49,2.23,2.23-1.49,1.48-1.49-1.48-1.48,1.48,1.48,1.49-1.48,1.48-4.46-4.45Zm-24.65-.57a3.16,3.16,0,0,1,4.46,0l.74.75-4.45,4.45-.75-.74A3.16,3.16,0,0,1,10.47,10.47ZM22.34,32.74l-1.49-1.49-1.49,1.49,1.49,1.48-1.49,1.49-2.22-2.23L15.65,35l2.23,2.23-2.39,2.39L11,35.12l8.32-8.33,4.46,4.46ZM12.7,17.16l1.49-1.49L27.53,29l7.67,7.66-1.49,1.49ZM35.84,39,39,35.84l.79,4Z"/></svg>