<svg id="Capa_1" data-name="Capa 1" xmlns="http://www.w3.org/2000/svg" viewBox="0 0 50 50"><defs><style>.cls-1{fill:#333;}</style></defs><title>Corazon-Icono</title><path class="cls-1" d="M17.93,30.77v3.06H7.87V31l4.87-6.17a6,6,0,0,0,1.52-3.58,2.14,2.14,0,0,0-.5-1.55,2,2,0,0,0-1.47-.53A6.21,6.21,0,0,0,8.4,20.87l-1-2.74A6,6,0,0,1,9.64,16.7a7.59,7.59,0,0,1,2.79-.53,5,5,0,0,1,3.63,1.31A4.66,4.66,0,0,1,17.41,21a7.36,7.36,0,0,1-.52,2.81,12.21,12.21,0,0,1-1.76,2.85l-3.31,4.12Z"/><path class="cls-1" d="M30.12,25.48V28h-4v4.78H24V28H20V25.48h4V20.7h2.14v4.78Z"/><path class="cls-1" d="M42.63,30.77v3.06H32.57V31l4.87-6.17A6,6,0,0,0,39,21.26a2.15,2.15,0,0,0-.51-1.55A2,2,0,0,0,37,19.18a6.21,6.21,0,0,0-3.89,1.69l-1-2.74a6.21,6.21,0,0,1,2.27-1.43,7.59,7.59,0,0,1,2.79-.53,5,5,0,0,1,3.63,1.31A4.66,4.66,0,0,1,42.11,21a7.36,7.36,0,0,1-.52,2.81,12.21,12.21,0,0,1-1.76,2.85l-3.31,4.12Z"/></svg>