<svg id="Capa_1" data-name="Capa 1" xmlns="http://www.w3.org/2000/svg" viewBox="0 0 263.29 263.29"><defs><style>.cls-1{fill:#333;}</style></defs><title>dinero</title><path class="cls-1" d="M192.4,70.88a85.68,85.68,0,1,0,25.27,60.76A85.41,85.41,0,0,0,192.4,70.88ZM131.64,207.59a75.95,75.95,0,1,1,76-76A76,76,0,0,1,131.64,207.59Z"/><path class="cls-1" d="M131.64,66.12a65.53,65.53,0,1,0,65.53,65.52A65.59,65.59,0,0,0,131.64,66.12Zm0,121a55.45,55.45,0,1,1,55.45-55.45A55.5,55.5,0,0,1,131.64,187.09Z"/><path class="cls-1" d="M146.76,116.47a5,5,0,1,0,10.08,0c0-5.58-2.88-11-7.92-14.72a27.67,27.67,0,0,0-12.24-5V91.27a5,5,0,0,0-10.08,0v5.44a27.67,27.67,0,0,0-12.24,5c-5,3.77-7.92,9.14-7.92,14.72s2.89,11,7.92,14.72a27.67,27.67,0,0,0,12.24,5v20c-5.8-1.42-10.08-5.18-10.08-9.48a5,5,0,1,0-10.08,0c0,5.59,2.89,10.95,7.92,14.73a27.66,27.66,0,0,0,12.24,5V172a5,5,0,1,0,10.08,0v-5.5a27.66,27.66,0,0,0,12.24-5c5-3.78,7.92-9.14,7.92-14.73s-2.88-11-7.92-14.72a27.79,27.79,0,0,0-12.24-5V107c5.81,1.42,10.08,5.19,10.08,9.48Zm-30.24,0c0-4.29,4.28-8.06,10.08-9.48v19C120.8,124.53,116.52,120.76,116.52,116.47Zm30.24,30.24c0,4.3-4.27,8.06-10.08,9.48v-19C142.49,138.65,146.76,142.42,146.76,146.71Z"/></svg>