<?xml version="1.0" encoding="utf-8"?>
<!-- Generator: Adobe Illustrator 22.1.0, SVG Export Plug-In . SVG Version: 6.00 Build 0)  -->
<svg version="1.1" id="Capa_1" xmlns="http://www.w3.org/2000/svg" xmlns:xlink="http://www.w3.org/1999/xlink" x="0px" y="0px"
	 viewBox="0 0 50 50" style="enable-background:new 0 0 50 50;" xml:space="preserve">
<style type="text/css">
	.st0{fill:#333333;}
</style>
<g>
	<path class="st0" d="M25,45c-2.5,0.1-4.9-0.4-7.2-1.3c-1.8-0.7-3.5-1.6-5-2.8c-1-0.7-1.9-1.5-2.7-2.4c-1-1.1-1.9-2.4-2.7-3.7
		c-0.7-1.3-1.3-2.6-1.7-4c-0.3-0.9-0.5-1.8-0.6-2.8c-0.3-1.5-0.2-3-0.2-4.6c0.1-1.4,0.3-2.7,0.7-4c0.6-2.1,1.5-4.1,2.8-5.9
		c0.9-1.3,1.9-2.4,3-3.4c1.2-1.1,2.5-2,4-2.8c1.6-0.9,3.4-1.5,5.2-1.9c0.8-0.2,1.6-0.3,2.5-0.4c1.1-0.1,2.3-0.1,3.4,0
		c1.3,0.1,2.6,0.3,3.8,0.7C31.7,6,33,6.5,34.2,7.2c1.3,0.7,2.5,1.5,3.7,2.4c0.7,0.6,1.3,1.2,1.9,1.8c1.1,1.2,2,2.4,2.8,3.8
		c0.7,1.3,1.3,2.6,1.7,4c0.3,0.9,0.5,1.8,0.6,2.8c0.3,1.5,0.2,3,0.2,4.5c-0.1,1.4-0.3,2.7-0.7,4.1c-0.6,2.1-1.5,4.1-2.8,5.9
		c-0.9,1.3-1.9,2.4-3,3.4c-1.2,1.1-2.5,2-4,2.8c-1.6,0.9-3.4,1.5-5.2,1.9c-0.8,0.2-1.6,0.3-2.5,0.4C26.3,45,25.6,45,25,45z
		 M5.8,26.2c0.3,4.7,2.2,9.1,5.9,12.6c3.7,3.5,8.2,5.3,13.3,5.3c5.3,0,10-1.9,13.7-5.8c3.7-3.8,5.6-8.5,5.5-13.8
		c-0.1-4.8-1.8-8.9-5-12.4C35.4,8,30.6,5.9,25,5.9c-5,0-9.4,1.7-13,5.1C7.7,15,5.7,19.9,5.8,26.2z"/>
	<path class="st0" d="M9.5,20.1c-0.1-0.2-0.2-0.5-0.2-0.7c-0.1-0.2-0.1-0.2-0.3-0.2c-0.2,0.1-0.4,0.1-0.7,0.3
		c0.3-0.3,0.5-0.6,0.7-0.9c-0.3-0.1-0.7-0.3-1-0.4c0,0,0,0,0-0.1c0.3,0,0.5,0,0.8,0c0.2,0,0.4,0,0.2-0.3c-0.1-0.2-0.2-0.5-0.2-0.7
		C9,17.4,9.2,17.7,9.5,18c0.2-0.2,0.4-0.5,0.7-0.7c0,0.3-0.1,0.5-0.2,0.8c0,0.2,0,0.2,0.2,0.2c0.2,0,0.5,0,0.7,0
		c-0.2,0.1-0.4,0.3-0.6,0.4c-0.1,0.1-0.2,0.1,0,0.3c0.2,0.2,0.3,0.4,0.5,0.6c0.5-1.2,1-2.3,1.8-3.3c1-1.3,2.1-2.5,3.4-3.5
		c1.3-1,2.7-1.7,4.3-2.2c1-0.3,2.1-0.6,3.2-0.7c1-0.1,2-0.1,3,0c1.1,0.1,2.1,0.3,3.1,0.6c1.8,0.6,3.5,1.4,5,2.6c1.7,1.3,3,2.9,4,4.8
		c0.6,1.2,1.1,2.4,1.4,3.7c0.2,1,0.4,2.1,0.4,3.1c0,0.8,0,1.6-0.1,2.4c-0.2,1.3-0.5,2.7-1,3.9c-0.5,1.3-1.2,2.5-2.1,3.7
		c-1.2,1.5-2.5,2.7-4.1,3.6c-1,0.6-2,1.1-3.1,1.4c-1.1,0.3-2.1,0.6-3.2,0.7c-1,0.1-2,0.1-2.9,0c-1.1-0.1-2.1-0.3-3.1-0.6
		c-1.6-0.5-3.1-1.2-4.4-2.2c-1.1-0.8-2.1-1.7-3-2.7c-0.7-0.9-1.4-1.8-1.9-2.9c-0.6-1.2-1.1-2.5-1.3-3.9c-0.3-1.5-0.3-2.9-0.2-4.4
		c0.1-1.3,0.4-2.7,0.9-3.9c0.1-0.2,0.1-0.3-0.2-0.4c-0.7-0.3-0.7-0.3-0.8,0.4C9.6,19.9,9.6,20,9.5,20.1z M39.5,25.1
		c0-0.5,0-1.1-0.1-1.6c-0.1-0.8-0.3-1.6-0.5-2.5c-0.5-1.6-1.2-3-2.1-4.4c-1-1.4-2.1-2.5-3.5-3.5c-1.3-0.9-2.7-1.6-4.2-2
		c-1.2-0.3-2.4-0.6-3.6-0.6c-0.7,0-1.5,0-2.2,0.1c-0.6,0.1-1.3,0.2-1.9,0.3c-1.3,0.3-2.5,0.8-3.6,1.5c-1.1,0.6-2,1.3-2.9,2.1
		c-0.6,0.5-1.1,1.1-1.5,1.7c-0.8,1.1-1.5,2.3-2,3.6c-0.7,1.8-1,3.6-0.9,5.5c0,0.9,0.1,1.9,0.3,2.8c0.3,1.4,0.8,2.7,1.5,3.9
		c0.8,1.4,1.8,2.7,3,3.8c1.2,1,2.5,1.9,3.9,2.5c1.5,0.6,3,1.1,4.6,1.2c1.3,0.1,2.5,0.1,3.8-0.2c1.3-0.2,2.5-0.6,3.7-1.2
		c2-0.9,3.7-2.3,5-4c0.9-1.1,1.6-2.3,2.1-3.5C39.2,28.9,39.6,27,39.5,25.1z"/>
	<path class="st0" d="M19.2,41.9c-0.2-0.1-0.5-0.2-0.7-0.4c-0.2-0.1-0.2-0.1-0.2,0.1c0,0.3,0,0.5-0.2,0.8c-0.1-0.3-0.2-0.6-0.3-0.8
		c0-0.1-0.1-0.2-0.2-0.1c-0.2,0.1-0.5,0.2-0.8,0.3c0.3-0.3,0.5-0.6,0.7-0.9c-0.3-0.1-0.6-0.3-1-0.4c0,0,0,0,0-0.1c0.3,0,0.5,0,0.8,0
		c0.2,0,0.3-0.1,0.2-0.3c-0.1-0.2-0.2-0.5-0.2-0.8c0.2,0.3,0.4,0.5,0.7,0.8c0.2-0.2,0.4-0.5,0.7-0.7c0,0.3-0.1,0.5-0.2,0.7
		c-0.1,0.2,0,0.3,0.2,0.3c0.2,0,0.4,0,0.7,0c-0.2,0.1-0.3,0.2-0.5,0.3c-0.2,0.1-0.3,0.2-0.1,0.4C18.9,41.5,19.1,41.7,19.2,41.9
		C19.2,41.9,19.2,41.9,19.2,41.9z"/>
	<path class="st0" d="M40,15.7c-0.3-0.1-0.5-0.2-0.8-0.4c-0.2-0.1-0.2,0-0.2,0.1c0,0.3-0.1,0.5-0.2,0.8c-0.1-0.3-0.2-0.5-0.3-0.8
		c0-0.2-0.1-0.2-0.3-0.1c-0.2,0.1-0.5,0.2-0.8,0.3c0.3-0.3,0.5-0.6,0.7-0.9c-0.3-0.1-0.6-0.3-1-0.4c0,0,0,0,0-0.1c0.3,0,0.5,0,0.8,0
		c0.2,0,0.3,0,0.2-0.3c-0.1-0.2-0.2-0.5-0.3-0.9c0.4,0.3,0.5,0.6,0.8,0.9c0.2-0.2,0.4-0.5,0.7-0.7c0,0.3-0.1,0.6-0.2,0.8
		c-0.1,0.2,0,0.3,0.2,0.2c0.2,0,0.5,0,0.8,0c-0.3,0.2-0.5,0.3-0.7,0.4c-0.2,0.1-0.2,0.2,0,0.3C39.6,15.3,39.8,15.5,40,15.7
		C40,15.7,40,15.7,40,15.7z"/>
	<path class="st0" d="M39,32.2c0.3,0,0.6,0,0.8,0c0.2,0,0.3-0.1,0.2-0.3c-0.1-0.2-0.2-0.5-0.3-0.8c0.4,0.2,0.5,0.6,0.8,0.9
		c0.2-0.2,0.4-0.5,0.7-0.7c0,0.3-0.1,0.5-0.2,0.7c-0.1,0.2,0,0.3,0.2,0.3c0.2,0,0.4,0,0.7,0c-0.3,0.2-0.5,0.3-0.7,0.4
		c-0.2,0.1-0.2,0.2,0,0.3c0.2,0.2,0.4,0.4,0.5,0.7c-0.2-0.1-0.5-0.2-0.7-0.3c-0.2-0.1-0.3-0.1-0.3,0.2c0,0.2-0.1,0.5-0.2,0.7
		c-0.1-0.2-0.2-0.5-0.2-0.7c0-0.2-0.2-0.2-0.3-0.1c-0.2,0.1-0.4,0.2-0.7,0.2c0.2-0.3,0.4-0.5,0.6-0.8C39.6,32.5,39.3,32.4,39,32.2
		C39,32.2,39,32.2,39,32.2z"/>
	<path class="st0" d="M43.2,22.6c0.1,0.3,0.1,0.6,0.1,0.9c0,0.5-0.1,0.6-0.5,0.7c-0.4,0.1-0.5-0.1-0.7-0.4c-0.3,0.5-0.8,0.6-1.1,1.1
		c-0.2-0.5,0.2-0.6,0.5-0.8c0.2-0.2,0.4-0.3,0.5-0.6c0.1-0.2,0.1-0.4-0.2-0.3c-0.2,0-0.4,0-0.6,0.1c-0.2,0.1-0.2,0.1-0.3,0.3
		c0-0.3-0.1-0.5-0.1-0.8c0.1,0.2,0.2,0.3,0.4,0.2c0.3-0.1,0.7-0.1,1-0.1c0.3,0,0.5-0.1,0.8-0.1C43.1,22.9,43.1,22.8,43.2,22.6z
		 M42.9,23.2c-0.1,0-0.2,0-0.3,0.1c-0.1,0-0.3,0-0.4,0c-0.1,0-0.1,0.1-0.1,0.1c0,0.3,0.2,0.6,0.5,0.7c0.2,0,0.6-0.2,0.7-0.5
		C43.3,23.3,43.2,23.2,42.9,23.2z"/>
	<path class="st0" d="M20.6,7.4c0.3,0,0.6-0.1,0.8-0.1c0.3-0.1,0.7,0.1,0.8,0.4c0.1,0.3,0,0.6-0.3,0.8c0.5,0.3,0.7,0.8,1.2,1
		c-0.5,0.1-0.6,0.1-0.8-0.4c-0.2-0.2-0.4-0.4-0.6-0.5c-0.1,0-0.2,0-0.2,0c-0.1,0,0,0.1,0,0.2c0.1,0.2,0.1,0.4,0.1,0.6
		c0,0.2,0.1,0.3,0.3,0.4c-0.2-0.1-0.5,0.3-0.6,0c-0.1-0.2,0-0.4-0.1-0.7C21,8.6,21,8.1,20.9,7.7C20.9,7.6,20.8,7.5,20.6,7.4z
		 M21.4,7.4c-0.2,0-0.3,0-0.2,0.3c0.1,0.2,0.1,0.4,0.1,0.6c0,0.2,0.1,0.3,0.3,0.2C21.8,8.4,22,8.2,22,7.9C22,7.6,21.7,7.4,21.4,7.4z
		"/>
	<path class="st0" d="M31.6,39.5c0.2-0.1,0.3-0.2,0.4-0.2c0,0.5,0.4,0.7,0.6,1.1c0.1,0.3,0.3,0.5,0.5,0.7c-0.1-0.7-0.2-1.5-0.4-2.3
		c0.4,0.3,0.8,0.6,1.2,0.9c0.3,0.3,0.7,0.6,1.1,0.6c-0.3,0.3-0.5,0.2-0.8,0c-0.4-0.4-0.9-0.7-1.4-1c0.1,0.4,0.1,0.8,0.2,1.1
		c0,0.3,0.1,0.6,0.2,0.9c0,0.2-0.2,0.2-0.4,0.4C33.1,41.3,32,39.6,31.6,39.5z"/>
	<path class="st0" d="M13.9,36.2c0.1,0.2,0.4,0.3,0.4,0.5c0,0.1-0.3-0.1-0.5-0.1c-0.3,0.1-0.7,0.1-1,0.1c-0.2,0-0.2,0.1-0.2,0.2
		c-0.1,0.5-0.3,0.9-0.2,1.5c-0.2-0.2-0.3-0.4-0.5-0.6c0.4-0.1,0.3-0.4,0.4-0.6c0,0,0-0.1,0-0.1c0.2-0.3,0-0.3-0.3-0.3l0,0
		c0,0,0,0,0-0.1c0.4,0,0.4-0.3,0.5-0.6c0.1-0.4,0.3-0.8,0.1-1.2c0,0,0,0,0-0.1c0.2,0.2,0.4,0.4,0.7,0.7c-0.4-0.1-0.5,0-0.5,0.3
		c0,0.2-0.2,0.5-0.1,0.6c0.1,0.3,0.4,0,0.6,0C13.5,36.5,13.8,36.6,13.9,36.2C13.9,36.2,13.9,36.2,13.9,36.2z"/>
	<path class="st0" d="M26.4,9.4c-0.3,0-0.6,0-0.8,0c0-0.1,0.4,0,0.2-0.3c-0.1-0.2,0-0.7-0.4-0.7c-0.2,0-0.6-0.2-0.7,0.1
		c-0.1,0.3-0.5,0.6-0.1,0.9c-0.2,0-0.4,0-0.6,0C24.5,9,24.5,8.5,24.7,8c0.1-0.3,0.2-0.6,0.3-0.9c0-0.1,0-0.2,0.2-0.3
		c0.2,0,0.2,0.1,0.2,0.2c0.2,0.6,0.4,1.1,0.6,1.7C26.1,9,26.1,9.3,26.4,9.4z M25.5,8.2c-0.1-0.4-0.2-0.7-0.4-1.1
		C25,7.3,25,7.5,24.9,7.7C24.8,8.3,24.8,8.3,25.5,8.2z"/>
	<path class="st0" d="M16.9,10.7c0.1,0.2,0.3,0.4,0.4,0.6c-0.8-0.2-1.6-0.4-2.4-0.6c-0.2-0.1-0.3,0-0.2,0.2
		c-0.2-0.3-0.4-0.5-0.7-0.4c0.3-0.4,0.6-0.2,1-0.1c0.7,0.1,1.3,0.3,2,0.5c0,0,0.1,0.1,0.1,0C16.9,10.8,16.9,10.8,16.9,10.7
		C16.9,10.7,16.9,10.7,16.9,10.7z"/>
	<path class="st0" d="M26.6,40.6c-0.2,0.1-0.3,0.2-0.2,0.4c0.1,0.4,0.1,0.9,0.1,1.3c0,0.2,0,0.5,0.1,0.7c0.1,0.2-0.1,0.2-0.1,0.2
		c-0.4,0-0.8,0.1-1.1,0.1c-0.3,0-0.1-0.2-0.2-0.4c0.2,0.2,0.9,0.3,1,0.2c0.1,0,0-0.1,0-0.2c0-0.2-0.1-0.3-0.1-0.5
		c-0.1-0.5-0.1-0.5-0.5-0.6c0.1-0.1,0.2,0,0.3,0c0.1,0,0.2,0,0.3,0c-0.1-0.2,0-0.4,0-0.6c0-0.5-0.1-0.5-0.6-0.6
		C26,40.7,26.3,40.7,26.6,40.6z"/>
	<path class="st0" d="M29.9,42c0,0.4,0.3,0.5,0.5,0.6c-0.3,0-0.5,0-0.7-0.1c-0.6-0.5-1.3-0.9-2-1.3c-0.1,0.1,0,0.2-0.1,0.2
		c-0.1-0.2-0.1-0.4-0.2-0.7c0.6,0.4,1.2,0.8,1.7,1.1c0.2,0.1,0.3,0.2,0.5,0.3C29.9,42.3,29.9,42.2,29.9,42z"/>
	<path class="st0" d="M27.6,6.9c0.2-0.1,0.3,0,0.4,0.2c0.3,0.7,0.7,1.4,1.1,2c0.1,0.2,0.3,0.4,0.1,0.7C28.7,8.9,28.1,7.9,27.6,6.9z"
		/>
	<path class="st0" d="M40.8,26.5c0.1-0.3,0-0.5,0.1-0.8c0.1,0.1,0.1,0.3,0.3,0.3c0.7,0.1,1.3,0.1,2,0.1c0.2,0,0.2-0.1,0.2-0.2
		c0,0.3,0.1,0.6-0.1,0.8c0-0.2-0.2-0.3-0.4-0.3c-0.5,0-1,0-1.4-0.1C41.2,26.2,40.9,26.1,40.8,26.5z"/>
	<path class="st0" d="M40.6,22.3c-0.2-0.5-0.2-0.6,0.3-0.7c0.6-0.1,1.1-0.2,1.7-0.4c0.1,0,0.2-0.1,0.3-0.3c0.1,0.3,0.1,0.5,0.2,0.7
		c-0.1-0.2-0.3-0.2-0.4-0.2c-0.5,0.2-1.1,0.3-1.7,0.4C40.7,21.9,40.5,22,40.6,22.3z"/>
	<path class="st0" d="M35.6,13.4c0,0-0.1-0.1-0.1-0.1c-0.1-0.1-0.2-0.2-0.4-0.3c0,0-0.2,0-0.1-0.1c0-0.1,0.1,0,0.2,0
		c0,0,0.1,0.1,0.1,0c0.1-0.1,0.3-0.7,0.2-0.9c0,0,0-0.1,0-0.1c0.3,0,0.2-0.1,0.2-0.3c0.1-0.3,0.3-0.6,0.3-0.9c0-0.1,0.1-0.2,0.2-0.1
		c0.1,0,0.1,0.1,0,0.2c-0.2,0.7-0.5,1.4-0.7,2.1c0,0.1,0,0.2,0.1,0.3C35.7,13.3,35.6,13.3,35.6,13.4z"/>
	<path class="st0" d="M21.9,40.5c0.2,0,0.4,0,0.7,0.1c-0.3,0-0.3,0.2-0.4,0.4c0,0.5-0.1,0.9-0.1,1.4c0,0.1-0.1,0.3,0.1,0.4
		c0.1,0-0.1,0.3-0.3,0.3c-0.1,0-0.2,0-0.4,0c0.1-0.1,0.3,0,0.3-0.2C21.8,42,22,41.3,21.9,40.5z"/>
	<path class="st0" d="M7.1,22.4c-0.1,0.2,0,0.2,0.2,0.3c0.5,0.1,1,0.2,1.6,0.3c0.2,0,0.4,0.1,0.6-0.1c0.1,0.2-0.1,0.5-0.1,0.7
		c0-0.5-0.4-0.3-0.6-0.4c-0.5-0.1-1-0.2-1.5-0.2c-0.1,0-0.3-0.1-0.2,0.2c0,0.1,0,0.1-0.1,0.1l0,0C6.9,22.9,7,22.7,7.1,22.4
		C7,22.4,7,22.4,7.1,22.4L7.1,22.4z"/>
	<path class="st0" d="M8.4,25.7C8,25.8,7.6,26,7.2,26.2c-0.1,0-0.2,0.1-0.3,0c-0.1-0.1,0-0.2,0.1-0.3c0.6-0.3,1.2-0.5,1.7-0.8
		C9,25.1,9.2,25,9.4,24.8c0,0.3,0,0.5,0,0.8C9.2,25.3,9,25.3,8.4,25.7C8.4,25.7,8.4,25.7,8.4,25.7z"/>
	<path class="st0" d="M10.5,14.3c0-0.2,0.2-0.3,0.3-0.5c-0.1,0.5,0.3,0.5,0.5,0.7c0.3,0.3,0.7,0.5,1,0.8c0.2,0.1,0.3,0.3,0.6,0.1
		c-0.2,0.2-0.3,0.4-0.5,0.7c0-0.3-0.1-0.4-0.3-0.6c-0.4-0.3-0.8-0.6-1.2-0.9C10.8,14.3,10.6,14.3,10.5,14.3z"/>
	<path class="st0" d="M42.5,19.9c-0.3-0.1-0.6,0.1-0.9,0.1c-0.2,0-0.5,0.1-0.7,0.2c-0.4,0.1-0.7,0.3-0.6,0.9c-0.3-0.4-0.1-1,0.4-1.1
		c0.4-0.1,0.9-0.2,1.3-0.4c0.2-0.1,0.4,0,0.5-0.3C42.5,19.5,42.5,19.7,42.5,19.9C42.5,19.9,42.5,19.9,42.5,19.9z"/>
	<path class="st0" d="M42,17.5c0.1,0.2,0.3,0.4,0.3,0.6c-0.1-0.2-0.3-0.2-0.4-0.1c-0.6,0.2-1.1,0.5-1.6,0.8
		c-0.2,0.1-0.4,0.2-0.7,0.1c-0.3-0.2-0.2-0.4-0.2-0.7c0.1,0.7,0.2,0.7,0.8,0.5c0.5-0.2,1.1-0.5,1.6-0.7C41.9,17.7,42,17.7,42,17.5z"
		/>
	<path class="st0" d="M36,38c0.1-0.3-0.2-0.4-0.4-0.7c-0.1-0.2-0.3-0.4-0.5-0.1c0.2-0.2,0.4-0.4,0.6-0.5c0.1,0.5,1.2,1.9,1.5,2
		c0,0,0,0,0,0c-0.2,0.3-0.4,0.2-0.6-0.1C36.5,38.4,36.4,38.1,36,38C36.1,38,36.1,38,36,38z"/>
	<path class="st0" d="M10,35c0.9,0.2,1.6-0.2,1.8-1c0.1-0.3-0.1-0.5-0.2-0.8c0.4,0.5,0.5,1.1,0,1.6C11.2,35.4,10.5,35.5,10,35
		C10,35.1,10,35.1,10,35z"/>
	<path class="st0" d="M14.8,38.7c0.3-0.1,0.3-0.3,0.5-0.5c0.1-0.1,0.3-0.3,0.1-0.5c0,0,0,0,0.1,0c0.2,0,0.3,0.2,0.4,0.3
		c-0.6,0.6-1,1.3-1.5,2c-0.1-0.1-0.3-0.1-0.3-0.3C14.2,39.7,14.7,39,14.8,38.7C14.8,38.7,14.8,38.7,14.8,38.7z"/>
	<path class="st0" d="M22.9,41.4c0.1-0.3,0.2-0.5,0.4-0.7c0.3,0.9,0.3,1.8,0.7,2.6c-0.3,0-0.3,0-0.4-0.3c-0.1-0.5-0.3-1-0.4-1.5
		c0-0.1-0.1-0.2-0.1-0.2C23,41.3,23,41.4,22.9,41.4z"/>
	<path class="st0" d="M34.3,9.3c-0.4,0.3-0.5,0.7-0.8,1.1c-0.1,0.2-0.2,0.4-0.3,0.6c-0.1,0.2-0.2,0.3,0,0.4c0.1,0.1,0,0.1,0,0.1
		c0,0.1-0.1,0-0.1,0c-0.1-0.2-0.3-0.2-0.5-0.3c0.3,0,0.4-0.3,0.5-0.5c0.2-0.4,0.5-0.8,0.7-1.2C34,9.1,34,9.1,34.3,9.3z"/>
	<path class="st0" d="M30.9,39.7c-0.2,0.2-0.2,0.4-0.1,0.6c0.2,0.5,0.4,0.9,0.6,1.4c0.1,0.2,0.2,0.4,0.4,0.4
		c-0.2,0.1-0.4,0.1-0.6,0.2c0.1-0.2,0-0.4,0-0.6c-0.2-0.5-0.4-0.9-0.5-1.4c-0.1-0.2-0.2-0.4-0.5-0.3C30.4,39.9,30.7,39.8,30.9,39.7z
		"/>
	<path class="st0" d="M36.3,36.2c1.1-0.1,2.2,0,3.3-0.3c-0.1,0.2-0.2,0.3-0.4,0.3c-0.8,0.1-1.6,0.1-2.4,0.1
		C36.6,36.3,36.4,36.4,36.3,36.2z"/>
	<path class="st0" d="M8.6,32.9c0-0.2-0.1-0.3-0.2-0.5c0.3,0.1,0.5-0.1,0.8-0.2c0.3-0.1,0.7-0.2,1-0.4c0.4-0.2,0.5-0.5,0.2-1.1
		c0.4,0.3,0.3,1.1-0.1,1.3c-0.5,0.2-0.9,0.4-1.4,0.6C8.7,32.6,8.5,32.7,8.6,32.9z"/>
	<path class="st0" d="M32.4,8.3c-0.2,0-0.3,0-0.4,0.2c-0.2,0.5-0.4,1-0.6,1.5c-0.1,0.2-0.2,0.3,0,0.5c-0.2-0.1-0.4-0.2-0.7-0.3
		c0.4,0,0.4-0.2,0.5-0.4c0.2-0.6,0.4-1.1,0.7-1.7C32,8.1,32.3,8.2,32.4,8.3L32.4,8.3z"/>
	<path class="st0" d="M9.4,28.1c-0.3-0.1-0.5,0-0.7,0.3c-0.1,0.2-0.2,0.5-0.3,0.8c-0.3,0.4-0.6,0.4-1,0.1c0,0,0,0,0.1,0
		c0.4,0.1,0.7,0,0.8-0.4c0.1-0.2,0.1-0.5,0.3-0.7C8.8,27.8,9.2,27.7,9.4,28.1C9.4,28,9.4,28,9.4,28.1z"/>
	<path class="st0" d="M10,29.7c0.1,0.1,0,0.1,0.1,0.2c0.1,0.1,0.1,0.2-0.1,0.3c-0.6,0.2-1.2,0.5-1.8,0.8C8,31,8,31.2,8,31.4
		c-0.1-0.2-0.2-0.4-0.3-0.6C8.1,30.8,9.8,30,10,29.7z"/>
	<path class="st0" d="M12.3,12.2c-0.3,0.5-0.3,1,0.2,1.5c0.4,0.4,0.9,0.6,1.5,0.2c-0.4,0.5-1.3,0.5-1.7,0.1
		C11.9,13.4,11.9,12.7,12.3,12.2z"/>
	<path class="st0" d="M42.9,28.1c-0.5-0.4-0.8-0.2-1,0.2c-0.2,0.2-0.3,0.5-0.7,0.5c-0.2,0-0.4,0-0.6-0.2c0,0,0,0,0.1,0
		c0.3,0.1,0.6,0.1,0.8-0.2c0.1-0.1,0.3-0.3,0.4-0.4C42.3,27.5,42.7,27.6,42.9,28.1C43,28,42.9,28.1,42.9,28.1z"/>
	<path class="st0" d="M19.7,10c0.3-0.5,0.1-1-0.2-1.5c-0.3-0.5-0.8-0.6-1.3-0.5c0.4-0.3,1.1-0.1,1.5,0.3C20,8.8,20.2,9.5,19.7,10
		C19.8,10.1,19.7,10.1,19.7,10z"/>
	<path class="st0" d="M19.1,10.5c-0.2,0.1-0.7,0.1-1,0c-0.6-0.3-1-1.3-0.4-1.9c-0.3,0.6-0.1,1.2,0.3,1.6
		C18.3,10.5,18.7,10.6,19.1,10.5L19.1,10.5z"/>
	<path class="st0" d="M14.4,13.5c0.1-0.4-0.2-0.7-0.6-0.8c0.1-0.2,0.2-0.3,0.4-0.4c0,0.2,0.2,0.4,0.3,0.5c0.2,0.2,0.3,0.4,0.1,0.6
		C14.5,13.4,14.5,13.5,14.4,13.5C14.4,13.5,14.4,13.5,14.4,13.5z"/>
	<path class="st0" d="M8.4,25.7c0,0.1,0,0.1,0,0.2c0,0.7,0,0.7,0.7,0.8c0.1,0,0.2,0.1,0.3-0.1c0-0.1,0.1,0,0.1,0
		c0.1,0.2,0,0.3,0.1,0.5c-0.3-0.4-0.7-0.4-1.1-0.5c-0.3-0.1-0.6-0.2-1-0.2c0.4-0.1,0.6,0.1,0.9,0.1C8.3,26.2,8.3,25.9,8.4,25.7
		C8.4,25.7,8.4,25.7,8.4,25.7z"/>
	<path class="st0" d="M9.5,28.1c0.4,0.3,0.1,0.7,0.3,1c-0.2,0-0.3,0.2-0.5,0.1C9.7,28.8,9.8,28.5,9.5,28.1
		C9.5,28.1,9.5,28.1,9.5,28.1z"/>
	<path class="st0" d="M29.2,40.3c0.2,0.1,0.4-0.1,0.5-0.1c-0.4,0.4,0.2,0.8,0,1.2C29.5,41.1,29.6,40.6,29.2,40.3z"/>
	<path class="st0" d="M12,36.7c-0.1,0.1-0.3,0-0.4,0c-0.3,0-0.3,0-0.4,0.3c-0.1-0.1-0.2-0.2-0.3-0.4C11.3,36.8,11.7,36.7,12,36.7
		C12.1,36.8,12,36.7,12,36.7z"/>
	<path class="st0" d="M7.3,29.1c-0.3-0.2-0.2-0.5-0.2-0.7c0-0.1,0.2-0.1,0.4-0.1C7.1,28.5,7.2,28.8,7.3,29.1
		C7.3,29.1,7.3,29.1,7.3,29.1z"/>
	<path class="st0" d="M34.2,39.1c-0.3-0.2-0.2-0.7-0.6-0.7c0.1-0.1,0.2-0.1,0.3-0.2C33.8,38.5,34.1,38.7,34.2,39.1z"/>
	<path class="st0" d="M9.5,34.6c-0.2-0.2-0.2-0.5-0.3-0.7c0,0,0.2-0.1,0.4-0.2C9.4,34,9.4,34.3,9.5,34.6z"/>
	<path class="st0" d="M12.6,11.9c0.1-0.2,0.5-0.2,0.4-0.5c0.1,0.1,0.2,0.2,0.3,0.4C13.1,11.7,12.8,11.8,12.6,11.9
		C12.6,11.9,12.6,11.9,12.6,11.9z"/>
	<path class="st0" d="M24.2,41.5c-0.2-0.3,0.1-0.6-0.2-0.7c0.2-0.1,0.4,0,0.6,0.1C24.2,40.9,24.2,41.2,24.2,41.5z"/>
	<path class="st0" d="M32.4,8.4c0.3-0.1,0.4,0.2,0.7,0.1C33,8.7,33,8.8,32.9,8.9C33,8.5,32.6,8.5,32.4,8.4
		C32.4,8.3,32.4,8.4,32.4,8.4z"/>
	<path class="st0" d="M7.1,22.4c0-0.1-0.1-0.3,0-0.4c0.1-0.2,0-0.2-0.1-0.4c0.2,0.2,0.4,0.1,0.6,0.2C7.1,21.7,7.2,22.1,7.1,22.4
		C7.1,22.4,7.1,22.4,7.1,22.4z"/>
	<path class="st0" d="M13.7,39.4c-0.4-0.2-0.5-0.3-0.3-0.5c0,0,0-0.1,0.1-0.1c0,0,0.1,0.1,0.1,0.1c0,0.1-0.1,0.2,0,0.3
		C13.6,39.3,13.6,39.3,13.7,39.4z"/>
	<path class="st0" d="M34.1,12.1c-0.2,0-0.2-0.2-0.4-0.3c0.2-0.1,0.4,0.1,0.6-0.2C34.2,11.9,34,11.9,34.1,12.1
		C34.2,12.1,34.2,12.1,34.1,12.1z"/>
	<path class="st0" d="M30,7.4c-0.2,0.1-0.3,0.2-0.3,0.4c-0.1-0.2,0-0.4-0.3-0.4C29.7,7.2,29.8,7.4,30,7.4z"/>
	<path class="st0" d="M15.3,12c0.2,0.1,0.2,0.3,0.5,0.2c-0.1,0.1-0.3,0.2-0.4,0.3C15.4,12.3,15.4,12.1,15.3,12z"/>
	<path class="st0" d="M37.8,34.9C37.7,34.9,37.7,34.9,37.8,34.9c-0.3-0.1-0.4-0.2-0.2-0.4c0,0,0-0.1,0.1-0.1
		C37.7,34.6,37.7,34.8,37.8,34.9C37.8,34.9,37.8,34.9,37.8,34.9z"/>
	<path class="st0" d="M31.6,8c-0.2,0.1-0.3-0.1-0.5,0c0,0-0.1,0-0.1-0.1c0-0.1,0-0.2,0.1-0.2c0.1-0.1,0,0,0.1,0
		C31.3,7.8,31.4,7.9,31.6,8z"/>
	<path class="st0" d="M36,39.3c0.2,0.1,0.3,0,0.4,0c0,0,0,0,0,0.1c0,0.1-0.1,0.1-0.2,0.1C36.1,39.7,36,39.6,36,39.3
		C35.9,39.3,35.9,39.3,36,39.3z"/>
	<path class="st0" d="M40.6,27.7c0-0.3,0.2-0.4,0.6-0.3C41,27.5,40.8,27.6,40.6,27.7C40.6,27.7,40.6,27.7,40.6,27.7z"/>
	<path class="st0" d="M6.9,23.2c0.1,0.2-0.1,0.5,0.2,0.6c0,0,0,0-0.1,0c-0.1,0-0.2,0-0.4,0C7,23.7,6.8,23.4,6.9,23.2
		C6.9,23.2,6.9,23.2,6.9,23.2z"/>
	<path class="st0" d="M27.5,9.4c-0.1-0.1-0.3-0.1-0.4-0.1c0.2,0,0.3-0.1,0.3-0.4C27.5,9.1,27.4,9.2,27.5,9.4z"/>
	<path class="st0" d="M43,28.7c0,0.3-0.1,0.5-0.5,0.2C42.8,28.9,42.8,28.6,43,28.7L43,28.7z"/>
	<path class="st0" d="M14.4,38.5c-0.1,0-0.2-0.1-0.3-0.1c0.1-0.1,0.1-0.2,0.2-0.3C14.3,38.2,14.3,38.4,14.4,38.5
		C14.4,38.4,14.4,38.5,14.4,38.5z"/>
	<path class="st0" d="M40.6,28.5c-0.2-0.3-0.2-0.5,0-0.8c0,0,0,0,0,0C40.6,28,40.4,28.3,40.6,28.5C40.7,28.5,40.7,28.5,40.6,28.5z"
		/>
	<path class="st0" d="M35,11.5c-0.1-0.2-0.2,0-0.3,0c0.2-0.1,0.3-0.3,0.5-0.3C35.2,11.4,34.9,11.3,35,11.5C35,11.5,35,11.5,35,11.5z
		"/>
	<path class="st0" d="M43,28.7c-0.1-0.2,0-0.4-0.1-0.6c0,0,0,0,0.1,0C43.1,28.2,43.1,28.4,43,28.7C43,28.7,43,28.7,43,28.7z"/>
	<path class="st0" d="M16.7,10.5c-0.1-0.1-0.1-0.2-0.2-0.3C16.7,10.3,16.7,10.4,16.7,10.5C16.8,10.5,16.7,10.5,16.7,10.5z"/>
	<path class="st0" d="M19.1,10.5c0.1-0.1,0.2-0.1,0.3-0.2c0,0,0,0,0,0.1C19.4,10.5,19.3,10.5,19.1,10.5
		C19.1,10.5,19.1,10.5,19.1,10.5z"/>
	<path class="st0" d="M10,35.1c-0.1,0-0.2-0.1-0.3-0.2c0,0,0,0,0.1,0C9.8,34.9,9.9,35,10,35.1C10,35.1,10,35.1,10,35.1z"/>
	<path class="st0" d="M15.4,37.7c-0.1-0.1-0.2-0.2-0.3-0.2c0,0,0,0,0.1,0C15.2,37.5,15.3,37.5,15.4,37.7
		C15.4,37.6,15.4,37.7,15.4,37.7z"/>
	<path class="st0" d="M14.5,38.4c0,0.1,0.2,0.1,0.1,0.2l0,0C14.5,38.6,14.4,38.6,14.5,38.4C14.4,38.5,14.4,38.4,14.5,38.4z"/>
	<path class="st0" d="M37.8,34.9c0.1,0,0.1,0.1,0.2,0.1C37.8,35.1,37.8,35,37.8,34.9C37.8,34.9,37.8,34.9,37.8,34.9z"/>
	<path class="st0" d="M7.1,23.8c0.1,0,0.1,0,0.2,0.1C7.2,23.9,7.1,23.9,7.1,23.8C7,23.8,7,23.8,7.1,23.8z"/>
	<path class="st0" d="M19.4,10.3c0,0,0.1-0.1,0.1-0.1c0,0,0,0,0,0.1C19.6,10.3,19.5,10.3,19.4,10.3C19.5,10.3,19.5,10.3,19.4,10.3z"
		/>
	<path class="st0" d="M9.7,34.9c0,0-0.1-0.1-0.1-0.1C9.7,34.7,9.7,34.8,9.7,34.9C9.7,34.8,9.7,34.9,9.7,34.9z"/>
	<path class="st0" d="M36.4,39.3c0,0,0.1-0.1,0.1-0.1C36.6,39.2,36.5,39.3,36.4,39.3C36.4,39.3,36.4,39.3,36.4,39.3z"/>
	<path class="st0" d="M12.6,11.9c0,0-0.1,0.1-0.1,0.1c0,0,0,0,0-0.1C12.5,12,12.5,11.9,12.6,11.9C12.6,11.9,12.6,11.9,12.6,11.9z"/>
	<path class="st0" d="M19.8,10.1c0,0-0.1,0.1-0.1,0.1c0,0,0,0,0-0.1C19.6,10.1,19.7,10.1,19.8,10.1C19.7,10.1,19.8,10.1,19.8,10.1z"
		/>
	<path class="st0" d="M35,11.5c0.1,0,0.2,0.1,0.1,0.2l0,0C35.1,11.7,35,11.6,35,11.5C35,11.6,35,11.5,35,11.5z"/>
	<path class="st0" d="M16.8,10.5c0.1,0,0,0.1,0.1,0.2c0,0,0,0,0,0.1C16.7,10.7,16.8,10.6,16.8,10.5C16.7,10.5,16.8,10.5,16.8,10.5z"
		/>
	<path class="st0" d="M42.5,19.8c0.1,0,0.1,0.2,0,0.2C42.5,20.1,42.5,19.9,42.5,19.8C42.5,19.9,42.5,19.9,42.5,19.8z"/>
	<path class="st0" d="M14.6,38.6c0.1-0.1,0.2,0,0.2,0.1c0,0,0,0,0,0.1C14.7,38.7,14.6,38.7,14.6,38.6C14.6,38.6,14.6,38.6,14.6,38.6
		z"/>
	<path class="st0" d="M36.1,38.1c0,0.1-0.1,0-0.2,0.2C35.9,38,36,38.1,36.1,38.1C36.1,38,36.1,38,36.1,38.1z"/>
	<path class="st0" d="M12.6,34.9c-0.1,0-0.1-0.1,0-0.1C12.6,34.8,12.6,34.8,12.6,34.9C12.6,34.9,12.6,34.9,12.6,34.9z"/>
	<path class="st0" d="M38.9,35.8C38.9,35.8,38.9,35.8,38.9,35.8C38.8,35.8,38.8,35.8,38.9,35.8C38.9,35.8,38.9,35.8,38.9,35.8
		C38.9,35.8,38.9,35.8,38.9,35.8z"/>
	<path class="st0" d="M13.8,36.2c-0.1,0-0.1-0.1,0-0.1C13.8,36.1,13.8,36.2,13.8,36.2C13.9,36.2,13.9,36.2,13.8,36.2z"/>
	<path class="st0" d="M35.9,39.3C35.9,39.3,35.9,39.3,35.9,39.3C35.9,39.2,35.9,39.2,35.9,39.3C35.9,39.3,35.9,39.3,35.9,39.3z"/>
	<path class="st0" d="M14.4,13.6c0,0-0.1,0.1-0.1,0.1c0,0,0,0-0.1,0C14.3,13.6,14.4,13.5,14.4,13.6C14.4,13.5,14.4,13.5,14.4,13.6z"
		/>
	<path class="st0" d="M35.9,38.2C35.9,38.2,35.8,38.2,35.9,38.2c-0.1,0-0.1,0-0.1,0C35.8,38.2,35.8,38.2,35.9,38.2
		C35.9,38.2,35.9,38.2,35.9,38.2z"/>
	<path class="st0" d="M7.4,29.2c0,0-0.1-0.1-0.1-0.1c0,0,0,0,0,0C7.3,29.1,7.4,29.1,7.4,29.2C7.4,29.2,7.4,29.2,7.4,29.2z"/>
	<path class="st0" d="M35.2,11.7c0.1,0,0.1,0,0.2,0c0,0,0,0.1,0,0.1C35.2,11.8,35.2,11.7,35.2,11.7C35.2,11.7,35.2,11.7,35.2,11.7z"
		/>
	<path class="st0" d="M34.2,12.1C34.2,12.1,34.2,12.1,34.2,12.1C34.2,12.2,34.2,12.2,34.2,12.1C34.2,12.1,34.2,12.1,34.2,12.1z"/>
	<path class="st0" d="M15,37.5C15,37.4,15,37.4,15,37.5C15,37.3,15.1,37.3,15,37.5C15.1,37.4,15.1,37.4,15,37.5z"/>
	<path class="st0" d="M14.3,13.6c0,0.1-0.1,0.1-0.1,0.1C14.2,13.7,14.2,13.6,14.3,13.6C14.3,13.6,14.3,13.6,14.3,13.6z"/>
	<path class="st0" d="M12.5,12.1c0,0-0.1,0.1-0.1,0.1C12.3,12.1,12.4,12.1,12.5,12.1C12.5,12,12.5,12.1,12.5,12.1z"/>
	<path class="st0" d="M9.5,28C9.5,28,9.5,28,9.5,28C9.5,28.1,9.5,28.1,9.5,28C9.4,28.1,9.4,28.1,9.5,28C9.4,28,9.4,28,9.5,28z"/>
	<path class="st0" d="M35,11.5C35,11.5,35,11.5,35,11.5C35,11.5,35,11.6,35,11.5C35,11.6,35,11.6,35,11.5C35,11.5,35,11.5,35,11.5z"
		/>
	<path class="st0" d="M15.4,37.6C15.4,37.6,15.4,37.7,15.4,37.6C15.4,37.7,15.4,37.7,15.4,37.6C15.4,37.7,15.4,37.7,15.4,37.6
		C15.4,37.7,15.4,37.6,15.4,37.6z"/>
	<path class="st0" d="M21,23.5c-0.5,0.8-1,1.7-1.4,2.5c-0.5,0.9-1.1,1.9-1.6,2.8c-0.2,0.4-0.2,0.6,0.3,0.8c0.1,0,0.2,0.1,0.3,0.1
		c0.5,0.1,0.5,0.1,0.5,0.6c0,0.7,0,0.7-0.7,0.7c-1.7,0-3.5,0-5.2,0c-0.3,0-0.3-0.1-0.2-0.3c0-0.1,0.1-0.2,0.1-0.3
		c0.1-0.5,0.3-0.8,0.8-0.8c0.3,0,0.5-0.2,0.7-0.5c1.7-3.1,3.4-6.2,5.1-9.3c0.3-0.5,0.3-1.1,0.1-1.6c-0.1-0.3-0.4-0.5-0.7-0.6
		c-0.2-0.1-0.2-0.1-0.1-0.3c0.2-0.5,0.4-0.6,0.9-0.6c1,0.1,2,0,2.9,0c0.2,0,0.3,0.1,0.4,0.2c0,0,0,0,0,0c0.5,0.8,0.5,1.5,0,2.3
		c-0.2,0.2-0.2,0.5-0.1,0.7c0.5,1.4,0.9,2.9,1.3,4.3c0.1,0.2,0.1,0.3,0.1,0.5c0,2,0,4.1,0,6.1c0,0.1,0,0.2-0.1,0.2
		C23.2,28.7,22.1,26.1,21,23.5z"/>
	<path class="st0" d="M37.3,31c-0.1,0-0.2,0-0.2,0c-1.9,0-3.8,0-5.8,0c-0.2,0-0.4-0.1-0.3-0.3c0,0,0,0,0-0.1c0-0.3-0.1-0.6,0-0.9
		c0.1-0.2,0.5-0.1,0.8-0.2c0.5-0.2,0.6-0.4,0.3-0.9c-0.9-1.6-1.9-3.2-2.8-4.9c-0.1-0.1-0.1-0.2-0.2-0.4c-1.1,2.6-2.2,5.1-3.3,7.7
		c-0.1-0.1-0.1-0.3-0.1-0.4c0-2,0-4,0-6c0-0.7,0.3-1.3,0.5-1.9c0.3-1,0.6-2.1,0.9-3.1c0.1-0.2,0.1-0.3,0-0.5c0-0.1-0.1-0.2-0.1-0.2
		c-0.5-0.8-0.4-1.6,0.1-2.3c0.1-0.1,0.2-0.2,0.3-0.2c1.1,0,2.2,0,3.3,0c0.3,0,0.3,0.2,0.4,0.4c0.2,0.3,0.2,0.5-0.2,0.6
		c-0.5,0.2-0.7,0.6-0.6,1.1c0,0.5,0.1,0.9,0.3,1.4c1.6,2.9,3.2,5.8,4.8,8.7c0.3,0.5,0.6,0.8,1.2,0.8c0.1,0,0.2,0,0.3,0.2
		C37,30.3,37.1,30.6,37.3,31z"/>
	<path class="st0" d="M25,32.9c-0.3-0.3-0.5-0.6-0.4-1.1c0.2-3.5,0.3-7,0.4-10.5c0-0.1,0-0.1,0.1-0.2c0,0.5,0.1,1,0.1,1.5
		c0.1,3.1,0.2,6.2,0.4,9.2C25.4,32.3,25.3,32.6,25,32.9z"/>
	<path class="st0" d="M21.1,34.3c0,0.4-0.1,0.6-0.1,0.8c0,0.2,0,0.3,0.2,0.2c0.2,0,0.5,0,0.7,0c-0.3,0.1-0.6,0.3-0.9,0.4
		c-0.2,0.1-0.2,0.1-0.1,0.3c0.2,0.2,0.4,0.5,0.6,0.8c-0.4-0.1-0.7-0.3-1.1-0.4c0,0.4,0,0.8,0,1.2c0,0,0,0,0,0
		c-0.1-0.2-0.2-0.4-0.2-0.7c-0.1-0.2-0.2-0.3-0.4-0.2c-0.4,0.1-0.7,0.3-1.2,0.3c0.4-0.4,0.7-0.7,1.1-1c-0.3-0.2-0.6-0.3-1-0.6
		c0.3,0,0.5-0.1,0.6,0c0.4,0,0.4-0.1,0.3-0.4c-0.1-0.2-0.1-0.5-0.1-0.8c0.3,0.2,0.4,0.4,0.5,0.6c0.2,0.3,0.3,0.3,0.5,0
		C20.8,34.6,20.9,34.5,21.1,34.3z"/>
	<path class="st0" d="M28,36.5c-0.3,0.2-0.6,0.4-0.9,0.5c0.3,0.2,0.5,0.4,0.8,0.6c-0.1,0-0.1,0-0.1,0c-0.3,0-0.6-0.3-0.8-0.1
		c-0.2,0.1-0.2,0.5-0.3,0.7c-0.1,0.2-0.1,0.3-0.2,0.5c-0.1-0.4-0.1-0.8-0.1-1.1c0-0.2-0.1-0.2-0.2-0.1c-0.2,0.1-0.4,0.3-0.6,0.2
		c0,0,0-0.1,0-0.1c0.4-0.6,0.4-0.6-0.2-0.9c-0.1-0.1-0.2-0.1-0.4-0.2c0.4,0,0.8-0.1,1.1-0.1c-0.1-0.3-0.2-0.6-0.3-1
		c0.3,0.3,0.5,0.5,0.7,0.8c0.2-0.3,0.3-0.5,0.4-0.7c0.1,0.2,0,0.4,0,0.6c-0.1,0.5-0.1,0.5,0.4,0.4c0.2,0,0.4,0,0.6,0
		C27.9,36.5,27.9,36.5,28,36.5z"/>
	<path class="st0" d="M15.1,22.8c-0.3,0.2-0.5,0.3-0.7,0.5c-0.1,0.1-0.1,0.1,0,0.3c0.2,0.2,0.4,0.4,0.6,0.6c0,0,0,0-0.1,0.1
		c-0.2-0.1-0.4-0.2-0.6-0.3c-0.2-0.1-0.3-0.1-0.3,0.2c0,0.2,0,0.5-0.2,0.7c-0.1-0.3-0.2-0.6-0.3-0.8c0-0.1-0.1-0.2-0.2-0.1
		C13,23.9,12.8,24,12.5,24c0.2-0.3,0.4-0.5,0.6-0.8c-0.3-0.1-0.7-0.3-1-0.4c0,0,0,0,0-0.1c0.3,0,0.5,0,0.8,0c0.2,0,0.3,0,0.2-0.2
		c-0.1-0.3-0.2-0.5-0.3-0.8c0.3,0.2,0.5,0.5,0.8,0.8c0.2-0.2,0.4-0.5,0.7-0.7c0,0.3-0.1,0.5-0.2,0.8c0,0.2,0,0.2,0.2,0.2
		C14.5,22.8,14.8,22.8,15.1,22.8z"/>
	<path class="st0" d="M30.1,16.1c-0.1-0.1,0-0.2,0.1-0.3c0.2-0.2,0.3-0.4,0.5-0.6c-0.2-0.1-0.3-0.1-0.5-0.2
		c-0.2-0.1-0.3-0.1-0.5-0.3c0.3,0,0.5,0,0.8,0c0.2,0,0.3,0,0.2-0.3c-0.1-0.2-0.2-0.5-0.2-0.8c0.2,0.3,0.4,0.6,0.7,0.8
		c0.2-0.2,0.4-0.5,0.7-0.7c0,0.3-0.1,0.5-0.2,0.7c-0.1,0.2,0,0.3,0.2,0.2c0.2,0,0.4,0,0.7,0c-0.2,0.2-0.4,0.3-0.6,0.4
		c-0.1,0.1-0.2,0.1,0,0.3c0.2,0.2,0.4,0.4,0.5,0.7c-0.2-0.1-0.5-0.2-0.7-0.4c-0.2-0.1-0.3-0.1-0.3,0.1c0,0.3-0.1,0.5-0.2,0.8
		c-0.1-0.3-0.2-0.5-0.3-0.8c0-0.1-0.1-0.2-0.2-0.1C30.6,15.9,30.3,15.9,30.1,16.1L30.1,16.1z"/>
	<path class="st0" d="M35.2,23.1C35,23,34.8,23,34.6,22.8c-0.2-0.1-0.2,0-0.3,0.1c0,0.2-0.1,0.4-0.1,0.6c0,0,0,0-0.1,0
		c-0.1-0.2-0.1-0.6-0.3-0.7c-0.1-0.1-0.4,0.1-0.7,0.2c0.2-0.2,0.4-0.4,0.5-0.7c-0.3-0.1-0.5-0.2-0.7-0.3c0,0,0,0,0-0.1
		c0.2,0,0.4,0,0.6,0c0.2,0,0.2-0.1,0.2-0.2c-0.1-0.1-0.2-0.3-0.1-0.5c0.2,0.1,0.3,0.4,0.5,0.5c0.2-0.2,0.3-0.4,0.5-0.5
		c0,0,0,0,0.1,0c0,0.2-0.1,0.3-0.1,0.5c-0.1,0.2,0,0.3,0.2,0.3c0.1,0,0.3,0,0.5,0c-0.2,0.2-0.4,0.3-0.6,0.4
		C34.8,22.7,35,22.9,35.2,23.1L35.2,23.1z"/>
	<path class="st0" d="M18.6,14.4c-0.2-0.1-0.4-0.2-0.5-0.2c0,0,0,0,0-0.1c0.2,0,0.4,0,0.6,0c-0.1-0.2-0.1-0.3-0.2-0.5
		c0.2-0.1,0.2,0.1,0.3,0.2c0.1,0.2,0.2,0.2,0.4,0c0-0.1,0.1-0.2,0.2-0.2c0,0,0,0,0,0.1c0,0.2-0.2,0.4,0,0.5c0.1,0.1,0.3,0,0.5,0
		c-0.2,0.1-0.3,0.2-0.5,0.3c0.1,0.2,0.3,0.3,0.4,0.5c0,0-0.1,0-0.1,0c-0.5-0.3-0.5-0.3-0.7,0.3c0,0,0,0-0.1,0
		c-0.1-0.2-0.1-0.4-0.2-0.5c-0.1-0.1-0.3,0.1-0.6,0.1C18.3,14.7,18.4,14.6,18.6,14.4z"/>
	<path class="st0" d="M28.6,33.4c0-0.2-0.1-0.5-0.1-0.8c-0.2,0.1-0.3,0.1-0.5,0.2c0-0.2,0.3-0.3,0.1-0.5c-0.1-0.1-0.3-0.2-0.5-0.3
		c0.2-0.1,0.5,0,0.6-0.1c0.1-0.1-0.1-0.3-0.1-0.6c0.2,0.1,0.5,0.8,0.7,0c0.2,0.2-0.1,0.5,0.1,0.6c0.1,0.1,0.4,0,0.6,0
		c-0.1,0.2-0.4,0.2-0.5,0.4c0.2,0.1,0.3,0.2,0.5,0.3C28.8,32.3,28.9,33.1,28.6,33.4z"/>
	<path class="st0" d="M36.9,27.3c0-0.5-0.3-0.7-0.7-0.4c0.1-0.1,0.2-0.3,0.4-0.4c-0.2-0.1-0.3-0.1-0.5-0.2c0.6-0.1,0.6-0.1,0.4-0.6
		c0.3,0.3,0.5,0.6,0.7,0.1c0.1,0.2,0,0.3,0,0.5c0.1,0.1,0.3,0,0.5,0.1c-0.1,0.1-0.3,0.2-0.4,0.3c0.1,0.2,0.3,0.2,0.3,0.4
		c-0.2,0-0.3-0.2-0.5-0.1C36.9,26.9,37,27.1,36.9,27.3z"/>
	<path class="st0" d="M30.1,16.1C30.1,16.1,30.1,16,30.1,16.1C30.1,16,30.1,16,30.1,16.1C30.1,16,30.1,16.1,30.1,16.1
		C30.1,16.1,30.1,16.1,30.1,16.1z"/>
	<polygon class="st0" points="35.2,23.1 35.2,23.1 35.2,23.1 	"/>
</g>
</svg>
