<svg id="book" xmlns="http://www.w3.org/2000/svg" viewBox="0 0 440 250"><defs><style>.cls-1{fill:none;}.cls-2{fill:#ffd801;}</style></defs><title>icono-iphone</title><rect class="cls-1" width="440" height="250"/><path class="cls-2" d="M346.85,119.22a3.1,3.1,0,1,0-3.1,3.09A3.1,3.1,0,0,0,346.85,119.22Zm-4.42,0a1.33,1.33,0,1,1,1.32,1.32A1.33,1.33,0,0,1,342.43,119.22Z"/><path class="cls-2" d="M353.27,120.42a1,1,0,0,0-2,0,1,1,0,1,0,2,0Z"/><path class="cls-2" d="M320.45,102.87a1,1,0,1,0-1-1A1,1,0,0,0,320.45,102.87Z"/><path class="cls-2" d="M348.62,133.8a.89.89,0,0,0,.88-.89v-2.65a.89.89,0,0,0-1.77,0v2.65A.89.89,0,0,0,348.62,133.8Z"/><path class="cls-2" d="M348.62,135.57a.88.88,0,0,0-.89.88v2.65a.89.89,0,0,0,1.77,0v-2.65A.88.88,0,0,0,348.62,135.57Z"/><path class="cls-2" d="M346.85,133.8H344.2a.89.89,0,1,0,0,1.77h2.65a.89.89,0,0,0,0-1.77Z"/><path class="cls-2" d="M353,133.8h-2.65a.89.89,0,0,0,0,1.77H353a.89.89,0,1,0,0-1.77Z"/><path class="cls-2" d="M313.27,115.24v7.07a.87.87,0,0,0,.88.88h17.67a.88.88,0,0,0,.89-.88v-7.07a.88.88,0,0,0-.89-.88H314.15A.87.87,0,0,0,313.27,115.24Zm1.76.88h15.91v5.31H315Z"/><path class="cls-2" d="M328.73,125.84H316.36a2.21,2.21,0,0,0,0,4.42h12.37a2.21,2.21,0,0,0,0-4.42Zm0,2.66H316.36a.45.45,0,0,1,0-.89h12.37a.45.45,0,0,1,0,.89Z"/><path class="cls-2" d="M315.92,133.8h4.42a.89.89,0,0,0,0-1.77h-4.42a.89.89,0,1,0,0,1.77Z"/><path class="cls-2" d="M330.06,135.57H315.92a.88.88,0,1,0,0,1.76h14.14a.88.88,0,0,0,0-1.76Z"/><path class="cls-2" d="M356.57,97.56H330.94a.88.88,0,0,0-.88.89v8H310.52a5.22,5.22,0,0,0-5.21,5.21v31.91a3.54,3.54,0,0,0,3.54,3.53h26.51a.88.88,0,0,0,0-1.76,1.77,1.77,0,1,1,0-3.54.87.87,0,0,0,.88-.88V110.82h20.33a.87.87,0,0,0,.88-.88V98.45A.88.88,0,0,0,356.57,97.56Zm-46.84,10.71V140h-.88a3.44,3.44,0,0,0-1.77.5V111.61A3.44,3.44,0,0,1,309.73,108.27Zm22.57,37H308.85a1.77,1.77,0,1,1,0-3.54H332.3a3.5,3.5,0,0,0,0,3.54Zm2.18-5.31h-23V108.17h18.56v1.77a.87.87,0,0,0,.88.88h3.54Zm21.21-30.93H331.82V99.33h23.87Z"/><path class="cls-2" d="M340.17,102.77l.49-.24v4.76a.89.89,0,0,0,1.77,0V101.1a.89.89,0,0,0-1.28-.79l-1.77.88a.89.89,0,0,0-.39,1.19A.87.87,0,0,0,340.17,102.77Z"/><path class="cls-2" d="M345.1,108.17h1.73a1.79,1.79,0,0,0,1.79-1.79V102a1.79,1.79,0,0,0-1.79-1.78H345.1a1.79,1.79,0,0,0-1.79,1.78v4.38A1.79,1.79,0,0,0,345.1,108.17Zm0-6.19,1.75,0v4.38s0,0,0,0l-1.75,0Z"/><path class="cls-2" d="M351.28,108.17H353a1.79,1.79,0,0,0,1.78-1.79V102a1.78,1.78,0,0,0-1.78-1.78h-1.74A1.78,1.78,0,0,0,349.5,102v4.38A1.79,1.79,0,0,0,351.28,108.17Zm0-6.19,1.75,0v4.38s0,0,0,0l-1.75,0Z"/><path class="cls-2" d="M333.59,104.63h.89v.89a.88.88,0,0,0,1.76,0v-.89h.89a.88.88,0,0,0,0-1.76h-.89V102a.88.88,0,1,0-1.76,0v.89h-.89a.88.88,0,0,0,0,1.76Z"/><path class="cls-2" d="M415.45,42H403V39.1a5.74,5.74,0,0,0-5.58-5.9h-8.19a5.75,5.75,0,0,0-5.6,5.88V42H371.25a1.39,1.39,0,0,0-1.4,1.4V69.92a7,7,0,0,0,6.77,7.18H410a7,7,0,0,0,6.78-7.18V43.45A1.41,1.41,0,0,0,415.49,42Zm-19,19a3.12,3.12,0,0,1-6.24,0h0V57.7h6.24Zm1.4-6.21h-9a1.4,1.4,0,0,0-1.4,1.4v2.64c-8-1.83-14-7.33-14.76-14H414c-.77,6.64-6.78,12.14-14.77,14V56.24a1.4,1.4,0,0,0-1.4-1.4ZM386.43,39.1a2.91,2.91,0,0,1,2.8-3h8.23a2.91,2.91,0,0,1,2.8,3V42H386.43Zm27.65,30.79a4.2,4.2,0,0,1-4,4.27H376.65a4.2,4.2,0,0,1-4-4.27V52.42A20.11,20.11,0,0,0,376.89,57a25.47,25.47,0,0,0,10.65,4.85,5.82,5.82,0,0,0,11.62,0A25.53,25.53,0,0,0,409.81,57a20.56,20.56,0,0,0,4.27-4.61Z"/><path class="cls-2" d="M418.56,213.85,370.81,166.1a.82.82,0,0,0-.58-.24h-1.54a.82.82,0,0,0-.83.82V216a.83.83,0,0,0,.83.83H418a.83.83,0,0,0,.82-.83v-1.54A.82.82,0,0,0,418.56,213.85Zm-1.4,1.3h-3.29v-1.64a.82.82,0,0,0-1.64,0v1.64h-3.29v-.82a.82.82,0,1,0-1.64,0v.82H404v-1.64a.82.82,0,0,0-1.64,0v1.64h-3.29v-.82a.82.82,0,1,0-1.64,0v.82h-3.29v-1.64a.82.82,0,0,0-1.64,0v1.64h-3.28v-.82a.83.83,0,0,0-1.65,0v.82H384.3v-1.64a.83.83,0,0,0-1.65,0v1.64h-3.28v-.82a.83.83,0,0,0-1.65,0v.82h-3.28v-1.64a.83.83,0,0,0-1.65,0v1.64h-3.28v-3.28h1.64a.83.83,0,0,0,0-1.65h-1.64v-3.28h.82a.83.83,0,0,0,0-1.65h-.82V202h1.64a.83.83,0,0,0,0-1.65h-1.64v-3.28h.82a.83.83,0,0,0,0-1.65h-.82v-3.28h1.64a.83.83,0,0,0,0-1.65h-1.64v-3.28h.82a.82.82,0,1,0,0-1.64h-.82v-3.29h1.64a.82.82,0,0,0,0-1.64h-1.64v-3.29h.82a.82.82,0,0,0,0-1.64h-.82v-3.29h1.64a.82.82,0,1,0,0-1.64h-1.64V167.5h.38l47.27,47.27Z"/><path class="cls-2" d="M378.54,206.94h18.08a.82.82,0,0,0,.82-.82.87.87,0,0,0-.24-.59l-18.07-18.07a.83.83,0,0,0-1.41.58v18.08A.82.82,0,0,0,378.54,206.94Zm.83-16.92,15.27,15.27H379.37Z"/><path class="cls-2" d="M417.75,193.64,391,166.91a.82.82,0,0,0-1.16,0l-7,7a.82.82,0,0,0,0,1.16l26.72,26.72a.82.82,0,0,0,1.16,0l7-7a.82.82,0,0,0,0-1.16ZM410.19,200l-.58-.58.58-.58a.83.83,0,0,0,0-1.17.81.81,0,0,0-1.16,0h0l-.58.58-1.16-1.17,1.74-1.74a.82.82,0,0,0-1.16-1.16L406.13,196,405,194.8l.59-.58a.82.82,0,0,0,0-1.16.83.83,0,0,0-1.17,0l-.58.58-1.16-1.16,1.74-1.75a.82.82,0,1,0-1.16-1.16l-1.74,1.74-1.16-1.16.58-.58a.82.82,0,0,0-1.16-1.16h0l-.58.58L398,187.83l1.75-1.74a.83.83,0,0,0-1.17-1.17l-1.74,1.75-1.16-1.17.58-.58a.82.82,0,0,0-1.16-1.16l-.58.58-1.16-1.16,1.74-1.74a.82.82,0,0,0,0-1.16.8.8,0,0,0-1.16,0L392.18,182,391,180.86l.58-.58a.83.83,0,0,0,0-1.17.82.82,0,0,0-1.16,0h0l-.58.58-1.16-1.16,1.74-1.74a.82.82,0,0,0-1.16-1.16l-1.74,1.74-1.17-1.16.58-.58a.81.81,0,0,0,0-1.16.83.83,0,0,0-1.17,0h0l-.58.58-.58-.58,4.07-4.07L414.26,196Zm5.23-5.23-25.56-25.56.58-.58L416,194.22Z"/></svg>