<?xml version="1.0" encoding="utf-8"?>
<!-- Generator: Adobe Illustrator 22.1.0, SVG Export Plug-In . SVG Version: 6.00 Build 0)  -->
<svg version="1.1" id="Capa_1" xmlns="http://www.w3.org/2000/svg" xmlns:xlink="http://www.w3.org/1999/xlink" x="0px" y="0px"
	 viewBox="0 0 50 50" style="enable-background:new 0 0 50 50;" xml:space="preserve">
<style type="text/css">
	.st0{fill:#333333;}
</style>
<g>
	<g>
		<g>
			<path class="st0" d="M42.5,7.4h-31c-1.5,0-2.7,1.2-2.7,2.7v21.6H5.4c-0.4,0-0.7,0.3-0.7,0.7c0,1.5,1.2,2.7,2.7,2.7H27v8.1
				c0,0.4,0.3,0.7,0.7,0.7c0.2,0,0.4-0.1,0.5-0.2l3.6-3.6l3.6,3.6c0.1,0.1,0.3,0.2,0.5,0.2c0.1,0,0.2,0,0.3-0.1
				c0.3-0.1,0.4-0.4,0.4-0.6v-8.1h2c1.5,0,2.7-1.2,2.7-2.7V10.8h3.4c0.4,0,0.7-0.3,0.7-0.7C45.3,8.7,44,7.4,42.5,7.4z M39.8,10.1
				v21.6h-2.7v1.3h2.5c-0.2,0.4-0.7,0.7-1.2,0.7h-2v-0.7h-1.3v8.5l-2.9-2.9c-0.3-0.3-0.7-0.3-1,0l-2.9,2.9v-8.5H27v0.7H7.4
				c-0.5,0-0.9-0.3-1.2-0.7h3.2h16.9v-1.3H10.1V10.1c0-0.7,0.6-1.3,1.4-1.3h28.7C40,9.2,39.9,9.7,39.8,10.1z M41.4,9.5
				c0.4-0.6,1.2-0.9,1.8-0.5c0.2,0.1,0.4,0.3,0.5,0.5H41.4z"/>
		</g>
	</g>
	<g>
		<g>
			<path class="st0" d="M38.1,28.6L37.2,27l0.9-1.5c0.2-0.3,0.1-0.7-0.3-0.9c0,0,0,0-0.1,0l-1.6-0.7L36,22c0-0.4-0.4-0.6-0.7-0.6
				c0,0,0,0-0.1,0l-1.7,0.3l-1.2-1.3c-0.3-0.3-0.7-0.3-1,0c0,0,0,0,0,0l-1.2,1.3l-1.7-0.3c-0.4-0.1-0.7,0.2-0.8,0.5c0,0,0,0,0,0.1
				l-0.2,1.8l-1.6,0.7c-0.3,0.2-0.5,0.6-0.3,0.9c0,0,0,0,0,0.1l0.9,1.5l-0.9,1.5c-0.2,0.3-0.1,0.7,0.3,0.9c0,0,0,0,0.1,0l1.6,0.7
				l0.2,1.8c0,0.4,0.4,0.6,0.7,0.6c0,0,0,0,0.1,0l1.7-0.3l1.2,1.3c0.3,0.3,0.7,0.3,1,0c0,0,0,0,0,0l1.2-1.3l1.7,0.3
				c0.2,0,0.4,0,0.5-0.1c0.2-0.1,0.2-0.3,0.3-0.5l0.2-1.8l1.6-0.7C38.1,29.4,38.3,29,38.1,28.6C38.1,28.6,38.1,28.6,38.1,28.6z
				 M35.9,27.4l0.7,1.2l-1.3,0.6c-0.2,0.1-0.4,0.3-0.4,0.5l-0.2,1.4l-1.4-0.3c-0.2,0-0.5,0-0.6,0.2l-1,1l-1-1
				c-0.1-0.1-0.3-0.2-0.5-0.2c0,0-0.1,0-0.1,0l-1.4,0.3l-0.2-1.4c0-0.2-0.2-0.4-0.4-0.5l-1.3-0.6l0.7-1.2c0.1-0.2,0.1-0.5,0-0.7v0
				l-0.7-1.2l1.3-0.6c0.2-0.1,0.4-0.3,0.4-0.5l0.2-1.4l1.4,0.3c0.2,0,0.5,0,0.6-0.2l1-1l1,1c0.2,0.2,0.4,0.3,0.6,0.2l1.4-0.3
				l0.2,1.4c0,0.2,0.2,0.4,0.4,0.5l1.3,0.6l-0.7,1.2C35.8,26.9,35.8,27.1,35.9,27.4z"/>
		</g>
	</g>
	<g>
		<g>
			<path class="st0" d="M31.8,23.6c-1.9,0-3.4,1.5-3.4,3.4c0,1.9,1.5,3.4,3.4,3.4c1.9,0,3.4-1.5,3.4-3.4S33.6,23.6,31.8,23.6z
				 M31.8,29c-1.1,0-2-0.9-2-2s0.9-2,2-2c1.1,0,2,0.9,2,2S32.9,29,31.8,29z"/>
		</g>
	</g>
	<g>
		<g>
			<rect x="19.6" y="11.5" class="st0" width="10.8" height="1.4"/>
		</g>
	</g>
	<g>
		<g>
			<rect x="12.9" y="15.5" class="st0" width="24.3" height="1.4"/>
		</g>
	</g>
	<g>
		<g>
			<rect x="12.9" y="18.2" class="st0" width="24.3" height="1.4"/>
		</g>
	</g>
	<g>
		<g>
			<rect x="13.5" y="27" class="st0" width="8.8" height="1.4"/>
		</g>
	</g>
</g>
</svg>
