<?xml version="1.0" encoding="utf-8"?>
<!-- Generator: Adobe Illustrator 22.1.0, SVG Export Plug-In . SVG Version: 6.00 Build 0)  -->
<svg version="1.1" id="Capa_1" xmlns="http://www.w3.org/2000/svg" xmlns:xlink="http://www.w3.org/1999/xlink" x="0px" y="0px"
	 viewBox="0 0 50 50" style="enable-background:new 0 0 50 50;" xml:space="preserve">
<style type="text/css">
	.st0{fill:#333333;}
</style>
<g>
	<path class="st0" d="M37.7,12.3c-7-7-18.3-7-25.3,0c-7,7-7,18.3,0,25.3c7,7,18.3,7,25.3,0C44.6,30.7,44.6,19.3,37.7,12.3z
		 M35.7,35.7c-5.9,5.9-15.5,5.9-21.4,0c-5.9-5.9-5.9-15.5,0-21.4c5.9-5.9,15.5-5.9,21.4,0C41.6,20.2,41.6,29.8,35.7,35.7z
		 M18.3,20.2c0-1.2,0.9-2.1,2.1-2.1c1.2,0,2.1,0.9,2.1,2.1c0,1.2-0.9,2.1-2.1,2.1C19.3,22.2,18.3,21.3,18.3,20.2z M27.8,20.2
		c0-1.2,0.9-2.1,2.1-2.1c1.2,0,2.1,0.9,2.1,2.1c0,1.2-0.9,2.1-2.1,2.1S27.8,21.3,27.8,20.2z M32.8,28.7c-1.3,3-4.3,4.9-7.7,4.9
		c-3.5,0-6.5-1.9-7.8-5c-0.2-0.5,0-1.1,0.5-1.3c0.1-0.1,0.3-0.1,0.4-0.1c0.4,0,0.8,0.2,0.9,0.6c0.9,2.3,3.3,3.7,5.9,3.7
		c2.6,0,4.9-1.5,5.9-3.7c0.2-0.5,0.8-0.7,1.3-0.5C32.7,27.6,33,28.2,32.8,28.7z"/>
</g>
</svg>
