<svg id="book" enable-background="new 0 0 300 300" height="512" viewBox="0 0 300 300" width="512" xmlns="http://www.w3.org/2000/svg"><g><path d="m220 136c0-7.719-6.281-14-14-14s-14 6.281-14 14 6.281 14 14 14 14-6.281 14-14zm-20 0c0-3.309 2.691-6 6-6s6 2.691 6 6-2.691 6-6 6-6-2.691-6-6z"/><path d="m249.058 141.462c0-2.501-2.028-4.53-4.53-4.53-2.501 0-4.529 2.028-4.529 4.53s2.028 4.53 4.529 4.53c2.502 0 4.53-2.028 4.53-4.53z"/><path d="m100.528 61.992c2.502 0 4.53-2.028 4.53-4.53s-2.028-4.53-4.53-4.53c-2.501 0-4.529 2.028-4.529 4.53s2.028 4.53 4.529 4.53z"/><path d="m228 202c2.211 0 4-1.791 4-4v-12c0-2.209-1.789-4-4-4s-4 1.791-4 4v12c0 2.209 1.789 4 4 4z"/><path d="m228 210c-2.211 0-4 1.791-4 4v12c0 2.209 1.789 4 4 4s4-1.791 4-4v-12c0-2.209-1.789-4-4-4z"/><path d="m220 202h-12c-2.211 0-4 1.791-4 4s1.789 4 4 4h12c2.211 0 4-1.791 4-4s-1.789-4-4-4z"/><path d="m248 202h-12c-2.211 0-4 1.791-4 4s1.789 4 4 4h12c2.211 0 4-1.791 4-4s-1.789-4-4-4z"/><path d="m68 118v32c0 2.209 1.789 4 4 4h80c2.211 0 4-1.791 4-4v-32c0-2.209-1.789-4-4-4h-80c-2.211 0-4 1.791-4 4zm8 4h72v24h-72z"/><path d="m138 166h-56c-5.516 0-10 4.486-10 10s4.484 10 10 10h56c5.516 0 10-4.486 10-10s-4.484-10-10-10zm0 12h-56c-1.102 0-2-.896-2-2s.898-2 2-2h56c1.102 0 2 .896 2 2s-.898 2-2 2z"/><path d="m80 202h20c2.211 0 4-1.791 4-4s-1.789-4-4-4h-20c-2.211 0-4 1.791-4 4s1.789 4 4 4z"/><path d="m144 210h-64c-2.211 0-4 1.791-4 4s1.789 4 4 4h64c2.211 0 4-1.791 4-4s-1.789-4-4-4z"/><path d="m264 38h-116c-2.211 0-4 1.791-4 4v36h-88.414c-13.004 0-23.586 10.58-23.586 23.586v144.414c0 8.822 7.176 16 16 16h120c2.211 0 4-1.791 4-4s-1.789-4-4-4c-4.41 0-8-3.588-8-8s3.59-8 8-8c2.211 0 4-1.791 4-4v-136h92c2.211 0 4-1.791 4-4v-52c0-2.209-1.789-4-4-4zm-212 48.457v143.543h-4c-2.928 0-5.637.847-8 2.225v-130.639c0-7.355 5.137-13.5 12-15.129zm102.148 167.543h-106.148c-4.41 0-8-3.588-8-8s3.59-8 8-8h106.148c-1.367 2.355-2.148 5.088-2.148 8s.781 5.645 2.148 8zm9.852-24h-104v-144h84v8c0 2.209 1.789 4 4 4h16zm96-140h-108v-44h108z"/><path d="m189.789 61.578 2.211-1.105v21.527c0 2.209 1.789 4 4 4s4-1.791 4-4v-28c0-1.387-.719-2.674-1.898-3.402-1.18-.73-2.652-.793-3.891-.176l-8 4c-1.977.988-2.777 3.391-1.789 5.367s3.39 2.777 5.367 1.789z"/><path d="m212.078 86h7.844c4.453 0 8.078-3.625 8.078-8.08v-19.84c0-4.455-3.625-8.08-8.078-8.08h-7.844c-4.453 0-8.078 3.625-8.078 8.08v19.84c0 4.455 3.625 8.08 8.078 8.08zm0-28 7.922.08v19.84c0 .049-.039.08-.078.08l-7.922-.08z"/><path d="m240.078 86h7.844c4.453 0 8.078-3.625 8.078-8.08v-19.84c0-4.455-3.625-8.08-8.078-8.08h-7.844c-4.453 0-8.078 3.625-8.078 8.08v19.84c0 4.455 3.625 8.08 8.078 8.08zm0-28 7.922.08v19.84c0 .049-.039.08-.078.08l-7.922-.08z"/><path d="m160 70h4v4c0 2.209 1.789 4 4 4s4-1.791 4-4v-4h4c2.211 0 4-1.791 4-4s-1.789-4-4-4h-4v-4c0-2.209-1.789-4-4-4s-4 1.791-4 4v4h-4c-2.211 0-4 1.791-4 4s1.789 4 4 4z"/></g></svg>