<svg id="Capa_1" data-name="Capa 1" xmlns="http://www.w3.org/2000/svg" viewBox="0 0 50 50"><defs><style>.cls-1{fill:#333;}</style></defs><title>maletin-01</title><path class="cls-1" d="M40.79,15.59H31.9V13.53a4.1,4.1,0,0,0-4-4.21H22.06a4.1,4.1,0,0,0-4,4.21v2.06H9.21a1,1,0,0,0-1,1.05V35.55a5,5,0,0,0,4.84,5.13H36.93a5,5,0,0,0,4.84-5.13V16.64A1,1,0,0,0,40.79,15.59ZM27.23,29.18a2.23,2.23,0,1,1-4.46,0V26.82h4.46Zm1-4.44H21.79a1,1,0,0,0-1,1v1.89c-5.71-1.31-10-5.24-10.55-10h29.5c-.55,4.75-4.84,8.68-10.55,10V25.78a1,1,0,0,0-1-1ZM20.06,13.53a2.08,2.08,0,0,1,2-2.13h5.88a2.08,2.08,0,0,1,2,2.13v2.06H20.06V13.53Zm19.75,22a3,3,0,0,1-2.88,3.05H13.07a3,3,0,0,1-2.88-3.05V23.05a14.51,14.51,0,0,0,3.05,3.29,18.17,18.17,0,0,0,7.61,3.47,4.16,4.16,0,0,0,8.3,0,18.17,18.17,0,0,0,7.61-3.47,14.51,14.51,0,0,0,3.05-3.29Z"/></svg>