<svg id="Layer_1" enable-background="new 0 0 501.231 501.231" height="512" viewBox="0 0 501.231 501.231" width="512" xmlns="http://www.w3.org/2000/svg"><path d="m361.058 255.016 140.146-140.146-106.065-106.067-140.147 140.147-126.968-126.966c-29.309-29.309-76.751-29.314-106.065 0-29.243 29.242-29.243 76.824 0 106.066l126.966 126.966-140.147 140.148 106.066 106.066 140.146-140.148c.487.488 106.179 106.18 112.604 112.605l132.583 26.516-26.515-132.583zm56.359 141.214c-4.682-4.682-136.128-136.13-141.212-141.213l-158.787-158.787 21.213-21.214 299.999 300zm-22.278-345.001 63.64 63.641-34.082 34.082-31.819-31.821-21.213 21.213 31.819 31.821-21.213 21.213-21.214-21.214-21.213 21.213 21.214 21.214-21.213 21.213-63.64-63.64zm-351.967-8.032c17.587-17.585 46.05-17.588 63.64 0l10.606 10.606-63.64 63.641-10.606-10.606c-17.546-17.547-17.546-46.096 0-63.641zm169.393 317.885-21.214-21.213-21.213 21.214 21.214 21.213-21.214 21.214-31.82-31.821-21.213 21.213 31.82 31.821-34.081 34.082-63.641-63.641 118.934-118.936 63.641 63.641zm-137.574-222.425 21.214-21.214c7.711 7.712 184.065 184.065 190.606 190.607l109.393 109.393-21.213 21.214zm330.425 312 45.216-45.215 11.305 56.52z"/></svg>