<svg id="Capa_1" data-name="Capa 1" xmlns="http://www.w3.org/2000/svg" viewBox="0 0 263.29 263.29"><defs><style>.cls-1{fill:#333;}</style></defs><title>por-ciento-01</title><path class="cls-1" d="M173.65,48.56A10.12,10.12,0,0,0,160,53L84.74,201.11a10.13,10.13,0,0,0,18.05,9.18l75.3-148.11A10.13,10.13,0,0,0,173.65,48.56Z"/><path class="cls-1" d="M119.58,97.34a38.4,38.4,0,1,0-38.4,38.4A38.44,38.44,0,0,0,119.58,97.34Zm-38.4,18.15A18.15,18.15,0,1,1,99.34,97.34,18.18,18.18,0,0,1,81.18,115.49Z"/><path class="cls-1" d="M182.1,127.55A38.4,38.4,0,1,0,220.5,166,38.45,38.45,0,0,0,182.1,127.55Zm0,56.55A18.15,18.15,0,1,1,200.25,166,18.17,18.17,0,0,1,182.1,184.1Z"/></svg>