<svg id="Capa_1" data-name="Capa 1" xmlns="http://www.w3.org/2000/svg" viewBox="0 0 512 512"><defs><style>.cls-1{fill:#fff;}.cls-2{fill:#333;}</style></defs><title>sonrisa-01</title><path class="cls-1" d="M256,0C115,0,0,115.05,0,256S115.05,512,256,512,512,397,512,256,397,0,256,0Zm0,482C131.38,482,30,380.62,30,256S131.38,30,256,30,482,131.38,482,256,380.62,482,256,482Z"/><path class="cls-2" d="M391,256c0,74.44-60.56,135-135,135S121,330.44,121,256H91c0,91,74,165,165,165s165-74,165-165Z"/><rect class="cls-2" x="181" y="151" width="30" height="60"/><rect class="cls-2" x="301" y="151" width="30" height="60"/></svg>