<svg id="Capa_1" data-name="Capa 1" xmlns="http://www.w3.org/2000/svg" viewBox="0 0 50 50"><defs><style>.cls-1{fill:#333;}</style></defs><title>whatsapp</title><path class="cls-1" d="M41.07,24.59a15.8,15.8,0,0,1-23.4,13.7L8.93,41.07l2.85-8.4A15.64,15.64,0,0,1,25.29,8.93,15.73,15.73,0,0,1,41.07,24.59ZM25.29,11.43A13.22,13.22,0,0,0,12,24.59a13,13,0,0,0,2.53,7.71L12.9,37.19,18,35.57a13.19,13.19,0,1,0,7.3-24.14Zm8,16.76c-.1-.16-.36-.25-.75-.45s-2.28-1.12-2.64-1.24-.61-.2-.87.19-1,1.25-1.22,1.51-.45.28-.84.09a10.4,10.4,0,0,1-3.11-1.9,11.32,11.32,0,0,1-2.15-2.66c-.23-.38,0-.59.17-.78s.39-.45.58-.67a2.61,2.61,0,0,0,.39-.64.71.71,0,0,0,0-.67c-.09-.2-.87-2.08-1.19-2.85s-.64-.64-.87-.64-.48,0-.74,0a1.39,1.39,0,0,0-1,.48,4.29,4.29,0,0,0-1.35,3.2,7.31,7.31,0,0,0,1.58,4c.19.26,2.67,4.26,6.6,5.8s3.93,1,4.64.95A3.87,3.87,0,0,0,33,30,3.31,3.31,0,0,0,33.26,28.19Z"/></svg>